<svg width="217" height="217" viewBox="0 0 217 217" fill="none" xmlns="http://www.w3.org/2000/svg">
<path d="M216.462 0.341125H0.170898V216.632H216.462V0.341125Z" fill="#141416"/>
<path d="M110.793 95.5171V76.5295H137.375L141.172 80.3267V95.5171H133.578V80.3267H129.781V95.5171H122.187V80.3267H118.39V95.5171H110.793Z" fill="white"/>
<path d="M148.418 95.517L144.621 91.7199V87.9228L148.418 84.1257H156.012V80.3286H144.621V76.5315H159.811L163.609 80.3286V95.519H148.418V95.517ZM156.012 91.7199V87.9228H152.215V91.7199H156.012Z" fill="white"/>
<path d="M110.793 118.62V99.6326H125.984L129.781 103.43V118.62H122.187V103.43H118.39V118.62H110.793Z" fill="white"/>
<path d="M137.009 118.62L133.211 114.823V111.026L137.009 107.229H144.603V103.432H133.211V99.6345H148.402L152.199 103.432V118.622H137.009V118.62ZM144.603 114.823V111.026H140.806V114.823H144.603Z" fill="white"/>
<path d="M114.591 149.381V145.584H122.185V141.787H114.591L110.793 137.99V126.599L114.591 122.802H129.781V145.586L125.984 149.383H114.593L114.591 149.381ZM122.187 137.988V126.597H118.39V137.988H122.187Z" fill="white"/>
<path d="M138.202 141.785L134.405 137.988V126.597L138.202 122.8H149.594L153.391 126.597V134.191H141.999V137.988H149.594V141.785H138.202ZM145.797 130.394V126.597H141.999V130.394H145.797Z" fill="white"/>
<path d="M172.961 130.264C173.244 129.629 173.518 128.988 173.666 128.62C173.944 127.911 174.659 126.399 175.188 125.341C175.28 125.157 175.366 124.987 175.442 124.83C175.306 124.77 175.166 124.708 175.03 124.648L174.405 124.372C173.926 124.155 172.641 123.625 171.611 123.208C171.229 123.056 170.902 122.922 170.62 122.8H157.19V141.787H164.784V126.597H168.581V130.394L172.961 130.266V130.264Z" fill="white"/>
<path d="M68.5807 67.3993V58.269H50.3202V103.92H68.5807V94.7901H77.711V113.051H41.1899V49.1387H77.711V67.3993H68.5807Z" fill="white"/>
<path d="M77.711 113.051L77.7109 140.441H68.5806V76.5295H105.102V113.051L77.711 113.051ZM77.7109 103.92H95.9714V85.6598H77.7109V103.92Z" fill="white"/>
<path d="M68.5806 167.832L68.5807 103.92L77.7109 103.92V158.702H95.9714V149.572H105.102V167.832H68.5806Z" fill="white"/>
<path d="M77.7109 123.847H68.5806V132.977H77.7109V123.847Z" fill="#141416"/>
</svg>
